<?xml version="1.0" encoding="UTF-8"?> <!-- Generator: Adobe Illustrator 24.1.3, SVG Export Plug-In . SVG Version: 6.00 Build 0) --> <svg xmlns="http://www.w3.org/2000/svg" xmlns:xlink="http://www.w3.org/1999/xlink" version="1.1" id="Layer_1" x="0px" y="0px" viewBox="0 0 120 135" style="enable-background:new 0 0 120 135;" xml:space="preserve"> <style type="text/css"> .st0{fill:#E535AB;} .st1{fill:#FFFFFF;} </style> <path class="st0" d="M52,4.6L9.6,29.2c-4.9,2.9-8,8.1-8,13.8v49c0,5.7,3,11,8,13.8L52,130.4c4.9,2.9,11,2.9,16,0l42.5-24.5 c4.9-2.9,8-8.1,8-13.8V43c0-5.7-3-11-8-13.8L68,4.6C63,1.8,57,1.8,52,4.6z"></path> <g> <g> <g> <rect x="8.2" y="57.2" transform="matrix(0.5 -0.866 0.866 0.5 -28.9611 67.9147)" class="st1" width="72.3" height="3.7"></rect> </g> </g> <g> <g> <rect x="23.9" y="84.4" class="st1" width="72.3" height="3.7"></rect> </g> </g> <g> <g> <rect x="42.5" y="74.4" transform="matrix(0.5 -0.866 0.866 0.5 -60.3704 86.0585)" class="st1" width="3.7" height="41.7"></rect> </g> </g> <g> <g> <rect x="73.9" y="20" transform="matrix(0.5 -0.866 0.866 0.5 2.4362 86.0564)" class="st1" width="3.7" height="41.7"></rect> </g> </g> <g> <g> <rect x="23.5" y="39" transform="matrix(0.866 -0.5 0.5 0.866 -14.5098 27.6583)" class="st1" width="41.7" height="3.7"></rect> </g> </g> <g> <g> <rect x="73.9" y="22.9" transform="matrix(0.866 -0.5 0.5 0.866 -19.3684 45.797)" class="st1" width="3.7" height="72.3"></rect> </g> </g> <g> <g> <rect x="26.8" y="47.2" class="st1" width="3.7" height="41.7"></rect> </g> </g> <g> <g> <rect x="89.6" y="47.2" class="st1" width="3.7" height="41.7"></rect> </g> </g> <g> <g> <rect x="57.6" y="93.7" transform="matrix(0.866 -0.5 0.5 0.866 -37.4982 50.6411)" class="st1" width="36.3" height="3.3"></rect> </g> </g> <path class="st1" d="M98.3,90.2c-2.2,3.8-7,5.1-10.8,2.9s-5.1-7-2.9-10.8c2.2-3.8,7-5.1,10.8-2.9C99.2,81.6,100.5,86.4,98.3,90.2"></path> <path class="st1" d="M35.4,53.9c-2.2,3.8-7,5.1-10.8,2.9c-3.8-2.2-5.1-7-2.9-10.8c2.2-3.8,7-5.1,10.8-2.9 C36.3,45.3,37.6,50.1,35.4,53.9"></path> <path class="st1" d="M21.8,90.2c-2.2-3.8-0.9-8.6,2.9-10.8c3.8-2.2,8.6-0.9,10.8,2.9c2.2,3.8,0.9,8.6-2.9,10.8 C28.8,95.2,24,94,21.8,90.2"></path> <path class="st1" d="M84.7,53.9c-2.2-3.8-0.9-8.6,2.9-10.8c3.8-2.2,8.6-0.9,10.8,2.9c2.2,3.8,0.9,8.6-2.9,10.8 C91.7,58.9,86.8,57.7,84.7,53.9"></path> <path class="st1" d="M60,112.3c-4.4,0-7.9-3.5-7.9-7.9c0-4.4,3.5-7.9,7.9-7.9c4.4,0,7.9,3.5,7.9,7.9 C67.9,108.7,64.4,112.3,60,112.3"></path> <path class="st1" d="M60,39.7c-4.4,0-7.9-3.5-7.9-7.9s3.5-7.9,7.9-7.9c4.4,0,7.9,3.5,7.9,7.9S64.4,39.7,60,39.7"></path> </g> </svg> 